Coordinates
nRows=12
nColumns=34

# SIMM Motion File Header:
name Coordinates
datacolumns 34
datarows 12
otherdata 1
range 0.16000000000000000000 0.17100000000000001000

Units are S.I. units (second, meters, Newtons, ...)
Angles are in degrees.

endheader
time	pelvis_tz	pelvis_tx	pelvis_ty	pelvis_tilt	pelvis_list	pelvis_rotation	hip_flexion_r	hip_adduction_r	hip_rotation_r	knee_r_tx	knee_r_ty	knee_angle_r	tib_pat_r_tx	tib_pat_r_ty	tib_pat_r_r1	ankle_angle_r	subtalar_angle_r	mtp_angle_r	hip_flexion_l	hip_adduction_l	hip_rotation_l	knee_l_tx	knee_l_ty	knee_angle_l	tib_pat_l_tx	tib_pat_l_ty	tib_pat_l_r1	ankle_angle_l	subtalar_angle_l	mtp_angle_l	lumbar_extension	lumbar_bending	lumbar_rotation
      0.16000000000000000000	     -0.26401995000000000000	      0.00888707999999999860	      0.91526593999999983000	     -2.81213468999999930000	     -2.03398010999999950000	     -0.89320532999999991000	     14.69585401999999700000	      4.03002098999999790000	     13.32127616999999900000	     -0.00331583676219383750	     -0.41390243029382978000	     -9.58299231999999890000	      0.04534470075205288000	     -0.02088277567486351200	      8.86528260193584750000	      0.82152535999999987000	      0.00000000000000000000	      0.00000000000000000000	     -2.03623907000000020000	      2.13863755999999940000	      5.51800436999999810000	      0.00305802736271557590	     -0.41985358162341657000	    -46.74430835999999100000	      0.03876387505323469800	     -0.01950489795455128900	     16.91564561191778200000	    -15.99204132999999900000	      0.00000000000000000000	      0.00000000000000000000	      0.03471451999999998500	      7.86449752999999950000	     -3.04579277999999980000
      0.16100000000000000000	     -0.26395963099060854000	      0.00993288523014481190	      0.91539940816498278000	     -2.80895694444203500000	     -2.03025979907567990000	     -0.89672798921659369000	     14.60213488529731600000	      4.02935087321793440000	     13.33233456601632100000	     -0.00332131909004574050	     -0.41389984392534201000	     -9.55416186509663670000	      0.04534917836717456500	     -0.02088418536372021000	      8.84597780860539200000	      0.88004239298413023000	      0.00000000000000000000	      0.00000000000000000000	     -1.86836823284335330000	      2.11828620721702340000	      5.45310287725250300000	      0.00308959243340578210	     -0.41991686548253709000	    -47.01348771811203200000	      0.03870364243593845500	     -0.01949590709436372800	     16.93033969634204500000	    -15.90787767509258000000	      0.00000000000000000000	      0.00000000000000000000	      0.02447685567047493100	      7.85633432955142560000	     -3.00790027603239320000
      0.16200000000000001000	     -0.26389933432865337000	      0.01097180497783466200	      0.91552766835189792000	     -2.80566283794772930000	     -2.02520878554748670000	     -0.90096087839253947000	     14.50872175020963400000	      4.02750505284061330000	     13.34452636392336800000	     -0.00332676745548673640	     -0.41389725918573123000	     -9.52525793946985820000	      0.04535368461299743600	     -0.02088561009459500400	      8.82640587855406980000	      0.93846568530383090000	      0.00000000000000000000	      0.00000000000000000000	     -1.70098678622711240000	      2.09906575516471430000	      5.38878556782324210000	      0.00311938862176509330	     -0.41998011421479720000	    -47.27737716582674900000	      0.03864390485770966700	     -0.01948722205404320200	     16.94356084695377600000	    -15.82029162450358900000	      0.00000000000000000000	      0.00000000000000000000	      0.01416149316764853800	      7.84625772742389490000	     -2.96916239816221990000
      0.16300000000000001000	     -0.26383903819278937000	      0.01201056263125996500	      0.91565580593543983000	     -2.80236599214785990000	     -2.02012644534591730000	     -0.90521048741399712000	     14.41531581879763900000	      4.02563155469185840000	     13.35674484375823900000	     -0.00333221502140321810	     -0.41389467448446660000	     -9.49635228423546710000	      0.04535819153282862100	     -0.02088703517958076900	      8.80682765971607400000	      0.99688677083204558000	      0.00000000000000000000	      0.00000000000000000000	     -1.53361686057548720000	      2.07987192615928910000	      5.32448201091836190000	      0.00314914316806339010	     -0.42004336212011989000	    -47.54114208136219600000	      0.03858417893342002600	     -0.01947854421316683500	     16.95674732256275500000	    -15.73262500574604800000	      0.00000000000000000000	      0.00000000000000000000	      0.00384430153689386410	      7.83613608103984930000	     -2.93040461896168920000
      0.16400000000000001000	     -0.26377874205692531000	      0.01304932028468526600	      0.91578394351898174000	     -2.79906914634799000000	     -2.01504410514434800000	     -0.90946009643545478000	     14.32190988738564200000	      4.02375805654310260000	     13.36896332359311200000	     -0.00333766258731969930	     -0.41389208978320197000	     -9.46744662900107590000	      0.04536269845265981200	     -0.02088846026456652900	      8.78724944087807990000	      1.05530785636026000000	      0.00000000000000000000	      0.00000000000000000000	     -1.36624693492386200000	      2.06067809715386390000	      5.26017845401348080000	      0.00317889771436168700	     -0.42010661002544264000	    -47.80490699689765000000	      0.03852445300913039100	     -0.01946986637229046500	     16.96993379817173400000	    -15.64495838698850400000	      0.00000000000000000000	      0.00000000000000000000	     -0.00647289009386081000	      7.82601443465580270000	     -2.89164683976115850000
      0.16500000000000001000	     -0.26371844592106125000	      0.01408807793811056900	      0.91591208110252365000	     -2.79577230054812050000	     -2.00996176494277860000	     -0.91370970545691244000	     14.22850395597364700000	      4.02188455839434770000	     13.38118180342798500000	     -0.00334311015323618100	     -0.41388950508193734000	     -9.43854097376668480000	      0.04536720537249099700	     -0.02088988534955229400	      8.76767122204008410000	      1.11372894188847480000	      0.00000000000000000000	      0.00000000000000000000	     -1.19887700927223650000	      2.04148426814843860000	      5.19587489710860060000	      0.00320865226065998380	     -0.42016985793076533000	    -48.06867191243310300000	      0.03846472708484075000	     -0.01946118853141409800	     16.98312027378071700000	    -15.55729176823096300000	      0.00000000000000000000	      0.00000000000000000000	     -0.01679008172461548800	      7.81589278827175700000	     -2.85288906056062790000
      0.16600000000000001000	     -0.26365814978519725000	      0.01512683559153587100	      0.91604021868606555000	     -2.79247545474825110000	     -2.00487942474120870000	     -0.91795931447837009000	     14.13509802456165000000	      4.02001106024559180000	     13.39340028326285800000	     -0.00334855771915266220	     -0.41388692038067271000	     -9.40963531853229360000	      0.04537171229232218900	     -0.02089131043453805500	      8.74809300320209000000	      1.17215002741668940000	      0.00000000000000000000	      0.00000000000000000000	     -1.03150708362061130000	      2.02229043914301340000	      5.13157134020372040000	      0.00323840680695828070	     -0.42023310583608803000	    -48.33243682796855700000	      0.03840500116055110800	     -0.01945251069053773000	     16.99630674938969600000	    -15.46962514947341900000	      0.00000000000000000000	      0.00000000000000000000	     -0.02710727335537016200	      7.80577114188771050000	     -2.81413128136009670000
      0.16700000000000001000	     -0.26359785364933319000	      0.01616559324496117200	      0.91616835626960758000	     -2.78917860894838170000	     -1.99979708453963930000	     -0.92220892349982775000	     14.04169209314965400000	      4.01813756209683690000	     13.40561876309773100000	     -0.00335400528506914380	     -0.41388433567940802000	     -9.38072966329790250000	      0.04537621921215337400	     -0.02089273551952381900	      8.72851478436409420000	      1.23057111294490400000	      0.00000000000000000000	      0.00000000000000000000	     -0.86413715796898605000	      2.00309661013758820000	      5.06726778329884020000	      0.00326816135325657750	     -0.42029635374141078000	    -48.59620174350401100000	      0.03834527523626147400	     -0.01944383284966136000	     17.00949322499867500000	    -15.38195853071587700000	      0.00000000000000000000	      0.00000000000000000000	     -0.03742446498612483900	      7.79564949550366480000	     -2.77537350215956600000
      0.16800000000000001000	     -0.26353755751346919000	      0.01720435089838647300	      0.91629649385314949000	     -2.78588176314851220000	     -1.99471474433806970000	     -0.92645853252128541000	     13.94828616173765900000	      4.01626406394808110000	     13.41783724293260400000	     -0.00335945285098562550	     -0.41388175097814339000	     -9.35182400806351130000	      0.04538072613198456500	     -0.02089416060450958000	      8.70893656552610020000	      1.28899219847311870000	      0.00000000000000000000	      0.00000000000000000000	     -0.69676723231736082000	      1.98390278113216320000	      5.00296422639395910000	      0.00329791589955487440	     -0.42035960164673347000	    -48.85996665903945800000	      0.03828554931197183200	     -0.01943515500878499300	     17.02267970060765700000	    -15.29429191195833400000	      0.00000000000000000000	      0.00000000000000000000	     -0.04774165661687949900	      7.78552784911961830000	     -2.73661572295903530000
      0.16900000000000001000	     -0.26347726137760513000	      0.01824310855181177800	      0.91642463143669139000	     -2.78258491734864280000	     -1.98963240413650030000	     -0.93070814154274306000	     13.85488023032566200000	      4.01439056579932620000	     13.43005572276747700000	     -0.00336490041690210670	     -0.41387916627687876000	     -9.32291835282912020000	      0.04538523305181575000	     -0.02089558568949534400	      8.68935834668810440000	      1.34741328400133330000	      0.00000000000000000000	      0.00000000000000000000	     -0.52939730666573537000	      1.96470895212673800000	      4.93866066948907890000	      0.00332767044585317120	     -0.42042284955205622000	    -49.12373157457491100000	      0.03822582338768219800	     -0.01942647716790862200	     17.03586617621663600000	    -15.20662529320079200000	      0.00000000000000000000	      0.00000000000000000000	     -0.05805884824763418700	      7.77540620273557260000	     -2.69785794375850460000
      0.17000000000000001000	     -0.26341696524174107000	      0.01928186620523707900	      0.91655276902023330000	     -2.77928807154877330000	     -1.98455006393493070000	     -0.93495775056420072000	     13.76147429891366700000	      4.01251706765057040000	     13.44227420260235000000	     -0.00337034798281858830	     -0.41387658157561413000	     -9.29401269759472900000	      0.04538973997164694200	     -0.02089701077448110500	      8.66978012785011030000	      1.40583436952954790000	      0.00000000000000000000	      0.00000000000000000000	     -0.36202738101411014000	      1.94551512312131280000	      4.87435711258419870000	      0.00335742499215146810	     -0.42048609745737892000	    -49.38749649011036500000	      0.03816609746339255600	     -0.01941779932703225500	     17.04905265182561500000	    -15.11895867444324900000	      0.00000000000000000000	      0.00000000000000000000	     -0.06837603987838886100	      7.76528455635152600000	     -2.65910016455797390000
      0.17100000000000001000	     -0.26335666910587707000	      0.02032062385866238000	      0.91668090660377521000	     -2.77599122574890390000	     -1.97946772373336130000	     -0.93920735958565837000	     13.66806836750167000000	      4.01064356950181540000	     13.45449268243722300000	     -0.00337579554873506950	     -0.41387399687434950000	     -9.26510704236033790000	      0.04539424689147812700	     -0.02089843585946686900	      8.65020190901211450000	      1.46425545505776270000	      0.00000000000000000000	      0.00000000000000000000	     -0.19465745536248491000	      1.92632129411588760000	      4.81005355567931760000	      0.00338717953844976500	     -0.42054934536270161000	    -49.65126140564581900000	      0.03810637153910291500	     -0.01940912148615588800	     17.06223912743459400000	    -15.03129205568570700000	      0.00000000000000000000	      0.00000000000000000000	     -0.07869323150914353500	      7.75516290996748040000	     -2.62034238535744320000
